<?xml version="1.0" encoding="UTF-8" standalone="no"?>
<!DOCTYPE svg PUBLIC "-//W3C//DTD SVG 1.1//EN"
 "http://www.w3.org/Graphics/SVG/1.1/DTD/svg11.dtd">
<!-- Generated by graphviz version 6.0.1 (0)
 -->
<!-- Pages: 1 -->
<svg width="714pt" height="254pt"
 viewBox="0.00 0.00 714.00 254.00" xmlns="http://www.w3.org/2000/svg" xmlns:xlink="http://www.w3.org/1999/xlink">
<g id="graph0" class="graph" transform="scale(1 1) rotate(0) translate(4 250)">
<polygon fill="white" stroke="none" points="-4,4 -4,-250 710,-250 710,4 -4,4"/>
<!-- 139636483245968 -->
<g id="node1" class="node">
<title>139636483245968</title>
<polygon fill="none" stroke="black" points="416,-44.5 416,-113.5 498,-113.5 498,-44.5 416,-44.5"/>
<text text-anchor="middle" x="457" y="-98.3" font-family="Times,serif" font-size="14.00">e</text>
<polyline fill="none" stroke="black" points="416,-90.5 498,-90.5"/>
<text text-anchor="middle" x="457" y="-75.3" font-family="Times,serif" font-size="14.00">data 1.3800</text>
<polyline fill="none" stroke="black" points="416,-67.5 498,-67.5"/>
<text text-anchor="middle" x="457" y="-52.3" font-family="Times,serif" font-size="14.00">grad 2.0000</text>
</g>
<!-- 139636483247248+ -->
<g id="node6" class="node">
<title>139636483247248+</title>
<ellipse fill="none" stroke="black" cx="353" cy="-123" rx="27" ry="18"/>
<text text-anchor="middle" x="353" y="-119.3" font-family="Times,serif" font-size="14.00">+</text>
</g>
<!-- 139636483245968&#45;&gt;139636483247248+ -->
<g id="edge9" class="edge">
<title>139636483245968&#45;&gt;139636483247248+</title>
<path fill="none" stroke="black" d="M415.98,-96.26C405.77,-100.67 394.94,-105.34 385.23,-109.53"/>
<polygon fill="black" stroke="black" points="383.77,-106.35 375.97,-113.52 386.54,-112.77 383.77,-106.35"/>
</g>
<!-- 139636483245968* -->
<g id="node2" class="node">
<title>139636483245968*</title>
<ellipse fill="none" stroke="black" cx="561" cy="-79" rx="27" ry="18"/>
<text text-anchor="middle" x="561" y="-75.3" font-family="Times,serif" font-size="14.00">*</text>
</g>
<!-- 139636483245968*&#45;&gt;139636483245968 -->
<g id="edge1" class="edge">
<title>139636483245968*&#45;&gt;139636483245968</title>
<path fill="none" stroke="black" d="M534,-79C526.19,-79 517.35,-79 508.52,-79"/>
<polygon fill="black" stroke="black" points="508.24,-75.5 498.24,-79 508.24,-82.5 508.24,-75.5"/>
</g>
<!-- 139636483246672 -->
<g id="node3" class="node">
<title>139636483246672</title>
<polygon fill="none" stroke="black" points="624,-88.5 624,-157.5 706,-157.5 706,-88.5 624,-88.5"/>
<text text-anchor="middle" x="665" y="-142.3" font-family="Times,serif" font-size="14.00">c</text>
<polyline fill="none" stroke="black" points="624,-134.5 706,-134.5"/>
<text text-anchor="middle" x="665" y="-119.3" font-family="Times,serif" font-size="14.00">data 0.6000</text>
<polyline fill="none" stroke="black" points="624,-111.5 706,-111.5"/>
<text text-anchor="middle" x="665" y="-96.3" font-family="Times,serif" font-size="14.00">grad 0.0000</text>
</g>
<!-- 139636483246672&#45;&gt;139636483245968* -->
<g id="edge7" class="edge">
<title>139636483246672&#45;&gt;139636483245968*</title>
<path fill="none" stroke="black" d="M623.98,-105.74C613.77,-101.33 602.94,-96.66 593.23,-92.47"/>
<polygon fill="black" stroke="black" points="594.54,-89.23 583.97,-88.48 591.77,-95.65 594.54,-89.23"/>
</g>
<!-- 139636491818128 -->
<g id="node4" class="node">
<title>139636491818128</title>
<polygon fill="none" stroke="black" points="416,-132.5 416,-201.5 498,-201.5 498,-132.5 416,-132.5"/>
<text text-anchor="middle" x="457" y="-186.3" font-family="Times,serif" font-size="14.00">b</text>
<polyline fill="none" stroke="black" points="416,-178.5 498,-178.5"/>
<text text-anchor="middle" x="457" y="-163.3" font-family="Times,serif" font-size="14.00">data 0.3000</text>
<polyline fill="none" stroke="black" points="416,-155.5 498,-155.5"/>
<text text-anchor="middle" x="457" y="-140.3" font-family="Times,serif" font-size="14.00">grad 2.0000</text>
</g>
<!-- 139636491818128&#45;&gt;139636483247248+ -->
<g id="edge6" class="edge">
<title>139636491818128&#45;&gt;139636483247248+</title>
<path fill="none" stroke="black" d="M415.98,-149.74C405.77,-145.33 394.94,-140.66 385.23,-136.47"/>
<polygon fill="black" stroke="black" points="386.54,-133.23 375.97,-132.48 383.77,-139.65 386.54,-133.23"/>
</g>
<!-- 139636483247248 -->
<g id="node5" class="node">
<title>139636483247248</title>
<polygon fill="none" stroke="black" points="208,-88.5 208,-157.5 290,-157.5 290,-88.5 208,-88.5"/>
<text text-anchor="middle" x="249" y="-142.3" font-family="Times,serif" font-size="14.00">d</text>
<polyline fill="none" stroke="black" points="208,-134.5 290,-134.5"/>
<text text-anchor="middle" x="249" y="-119.3" font-family="Times,serif" font-size="14.00">data 1.6800</text>
<polyline fill="none" stroke="black" points="208,-111.5 290,-111.5"/>
<text text-anchor="middle" x="249" y="-96.3" font-family="Times,serif" font-size="14.00">grad 2.0000</text>
</g>
<!-- 139636483247504* -->
<g id="node10" class="node">
<title>139636483247504*</title>
<ellipse fill="none" stroke="black" cx="145" cy="-167" rx="27" ry="18"/>
<text text-anchor="middle" x="145" y="-163.3" font-family="Times,serif" font-size="14.00">*</text>
</g>
<!-- 139636483247248&#45;&gt;139636483247504* -->
<g id="edge8" class="edge">
<title>139636483247248&#45;&gt;139636483247504*</title>
<path fill="none" stroke="black" d="M207.98,-140.26C197.77,-144.67 186.94,-149.34 177.23,-153.53"/>
<polygon fill="black" stroke="black" points="175.77,-150.35 167.97,-157.52 178.54,-156.77 175.77,-150.35"/>
</g>
<!-- 139636483247248+&#45;&gt;139636483247248 -->
<g id="edge2" class="edge">
<title>139636483247248+&#45;&gt;139636483247248</title>
<path fill="none" stroke="black" d="M326,-123C318.19,-123 309.35,-123 300.52,-123"/>
<polygon fill="black" stroke="black" points="300.24,-119.5 290.24,-123 300.24,-126.5 300.24,-119.5"/>
</g>
<!-- 139636483247312 -->
<g id="node7" class="node">
<title>139636483247312</title>
<polygon fill="none" stroke="black" points="208,-176.5 208,-245.5 290,-245.5 290,-176.5 208,-176.5"/>
<text text-anchor="middle" x="249" y="-230.3" font-family="Times,serif" font-size="14.00">f</text>
<polyline fill="none" stroke="black" points="208,-222.5 290,-222.5"/>
<text text-anchor="middle" x="249" y="-207.3" font-family="Times,serif" font-size="14.00">data 2.0000</text>
<polyline fill="none" stroke="black" points="208,-199.5 290,-199.5"/>
<text text-anchor="middle" x="249" y="-184.3" font-family="Times,serif" font-size="14.00">grad 1.6000</text>
</g>
<!-- 139636483247312&#45;&gt;139636483247504* -->
<g id="edge5" class="edge">
<title>139636483247312&#45;&gt;139636483247504*</title>
<path fill="none" stroke="black" d="M207.98,-193.74C197.77,-189.33 186.94,-184.66 177.23,-180.47"/>
<polygon fill="black" stroke="black" points="178.54,-177.23 167.97,-176.48 175.77,-183.65 178.54,-177.23"/>
</g>
<!-- 139636483245904 -->
<g id="node8" class="node">
<title>139636483245904</title>
<polygon fill="none" stroke="black" points="624,-0.5 624,-69.5 706,-69.5 706,-0.5 624,-0.5"/>
<text text-anchor="middle" x="665" y="-54.3" font-family="Times,serif" font-size="14.00">a</text>
<polyline fill="none" stroke="black" points="624,-46.5 706,-46.5"/>
<text text-anchor="middle" x="665" y="-31.3" font-family="Times,serif" font-size="14.00">data 2.3000</text>
<polyline fill="none" stroke="black" points="624,-23.5 706,-23.5"/>
<text text-anchor="middle" x="665" y="-8.3" font-family="Times,serif" font-size="14.00">grad 0.0000</text>
</g>
<!-- 139636483245904&#45;&gt;139636483245968* -->
<g id="edge4" class="edge">
<title>139636483245904&#45;&gt;139636483245968*</title>
<path fill="none" stroke="black" d="M623.98,-52.26C613.77,-56.67 602.94,-61.34 593.23,-65.53"/>
<polygon fill="black" stroke="black" points="591.77,-62.35 583.97,-69.52 594.54,-68.77 591.77,-62.35"/>
</g>
<!-- 139636483247504 -->
<g id="node9" class="node">
<title>139636483247504</title>
<polygon fill="none" stroke="black" points="0,-132.5 0,-201.5 82,-201.5 82,-132.5 0,-132.5"/>
<text text-anchor="middle" x="41" y="-186.3" font-family="Times,serif" font-size="14.00">output</text>
<polyline fill="none" stroke="black" points="0,-178.5 82,-178.5"/>
<text text-anchor="middle" x="41" y="-163.3" font-family="Times,serif" font-size="14.00">data 3.3600</text>
<polyline fill="none" stroke="black" points="0,-155.5 82,-155.5"/>
<text text-anchor="middle" x="41" y="-140.3" font-family="Times,serif" font-size="14.00">grad 1.0000</text>
</g>
<!-- 139636483247504*&#45;&gt;139636483247504 -->
<g id="edge3" class="edge">
<title>139636483247504*&#45;&gt;139636483247504</title>
<path fill="none" stroke="black" d="M118,-167C110.19,-167 101.35,-167 92.52,-167"/>
<polygon fill="black" stroke="black" points="92.24,-163.5 82.24,-167 92.24,-170.5 92.24,-163.5"/>
</g>
</g>
</svg>
