<?xml version="1.0" encoding="UTF-8" standalone="no"?>
<!DOCTYPE svg PUBLIC "-//W3C//DTD SVG 1.1//EN"
 "http://www.w3.org/Graphics/SVG/1.1/DTD/svg11.dtd">
<!-- Generated by graphviz version 6.0.1 (0)
 -->
<!-- Pages: 1 -->
<svg width="953pt" height="342pt"
 viewBox="0.00 0.00 953.00 342.00" xmlns="http://www.w3.org/2000/svg" xmlns:xlink="http://www.w3.org/1999/xlink">
<g id="graph0" class="graph" transform="scale(1 1) rotate(0) translate(4 338)">
<polygon fill="white" stroke="none" points="-4,4 -4,-338 949,-338 949,4 -4,4"/>
<!-- 139637244083728 -->
<g id="node1" class="node">
<title>139637244083728</title>
<polygon fill="none" stroke="black" points="859,-264.5 859,-333.5 945,-333.5 945,-264.5 859,-264.5"/>
<text text-anchor="middle" x="902" y="-318.3" font-family="Times,serif" font-size="14.00">x1</text>
<polyline fill="none" stroke="black" points="859,-310.5 945,-310.5"/>
<text text-anchor="middle" x="902" y="-295.3" font-family="Times,serif" font-size="14.00">data 2.0000</text>
<polyline fill="none" stroke="black" points="859,-287.5 945,-287.5"/>
<text text-anchor="middle" x="902" y="-272.3" font-family="Times,serif" font-size="14.00">grad &#45;1.5000</text>
</g>
<!-- 139637244084304* -->
<g id="node7" class="node">
<title>139637244084304*</title>
<ellipse fill="none" stroke="black" cx="796" cy="-211" rx="27" ry="18"/>
<text text-anchor="middle" x="796" y="-207.3" font-family="Times,serif" font-size="14.00">*</text>
</g>
<!-- 139637244083728&#45;&gt;139637244084304* -->
<g id="edge10" class="edge">
<title>139637244083728&#45;&gt;139637244084304*</title>
<path fill="none" stroke="black" d="M860.19,-264.47C847.1,-253.39 833.01,-241.47 821.46,-231.7"/>
<polygon fill="black" stroke="black" points="823.45,-228.8 813.56,-225.01 818.93,-234.14 823.45,-228.8"/>
</g>
<!-- 139637244084816 -->
<g id="node2" class="node">
<title>139637244084816</title>
<polygon fill="none" stroke="black" points="416,-132.5 416,-201.5 522,-201.5 522,-132.5 416,-132.5"/>
<text text-anchor="middle" x="469" y="-186.3" font-family="Times,serif" font-size="14.00">x1*w1 + x2*w2</text>
<polyline fill="none" stroke="black" points="416,-178.5 522,-178.5"/>
<text text-anchor="middle" x="469" y="-163.3" font-family="Times,serif" font-size="14.00">data &#45;6.0000</text>
<polyline fill="none" stroke="black" points="416,-155.5 522,-155.5"/>
<text text-anchor="middle" x="469" y="-140.3" font-family="Times,serif" font-size="14.00">grad 0.5000</text>
</g>
<!-- 139637244085072+ -->
<g id="node11" class="node">
<title>139637244085072+</title>
<ellipse fill="none" stroke="black" cx="353" cy="-123" rx="27" ry="18"/>
<text text-anchor="middle" x="353" y="-119.3" font-family="Times,serif" font-size="14.00">+</text>
</g>
<!-- 139637244084816&#45;&gt;139637244085072+ -->
<g id="edge11" class="edge">
<title>139637244084816&#45;&gt;139637244085072+</title>
<path fill="none" stroke="black" d="M415.67,-146.8C405.61,-142.92 395.36,-138.96 386.17,-135.42"/>
<polygon fill="black" stroke="black" points="387.28,-132.09 376.69,-131.76 384.76,-138.62 387.28,-132.09"/>
</g>
<!-- 139637244084816+ -->
<g id="node3" class="node">
<title>139637244084816+</title>
<ellipse fill="none" stroke="black" cx="585" cy="-167" rx="27" ry="18"/>
<text text-anchor="middle" x="585" y="-163.3" font-family="Times,serif" font-size="14.00">+</text>
</g>
<!-- 139637244084816+&#45;&gt;139637244084816 -->
<g id="edge1" class="edge">
<title>139637244084816+&#45;&gt;139637244084816</title>
<path fill="none" stroke="black" d="M557.85,-167C550.11,-167 541.29,-167 532.29,-167"/>
<polygon fill="black" stroke="black" points="532.1,-163.5 522.1,-167 532.1,-170.5 532.1,-163.5"/>
</g>
<!-- 139637244085328 -->
<g id="node4" class="node">
<title>139637244085328</title>
<polygon fill="none" stroke="black" points="0,-88.5 0,-157.5 82,-157.5 82,-88.5 0,-88.5"/>
<text text-anchor="middle" x="41" y="-142.3" font-family="Times,serif" font-size="14.00">o</text>
<polyline fill="none" stroke="black" points="0,-134.5 82,-134.5"/>
<text text-anchor="middle" x="41" y="-119.3" font-family="Times,serif" font-size="14.00">data 0.7071</text>
<polyline fill="none" stroke="black" points="0,-111.5 82,-111.5"/>
<text text-anchor="middle" x="41" y="-96.3" font-family="Times,serif" font-size="14.00">grad 1.0000</text>
</g>
<!-- 139637244085328tanh -->
<g id="node5" class="node">
<title>139637244085328tanh</title>
<ellipse fill="none" stroke="black" cx="145" cy="-123" rx="27" ry="18"/>
<text text-anchor="middle" x="145" y="-119.3" font-family="Times,serif" font-size="14.00">tanh</text>
</g>
<!-- 139637244085328tanh&#45;&gt;139637244085328 -->
<g id="edge2" class="edge">
<title>139637244085328tanh&#45;&gt;139637244085328</title>
<path fill="none" stroke="black" d="M118,-123C110.19,-123 101.35,-123 92.52,-123"/>
<polygon fill="black" stroke="black" points="92.24,-119.5 82.24,-123 92.24,-126.5 92.24,-119.5"/>
</g>
<!-- 139637244084304 -->
<g id="node6" class="node">
<title>139637244084304</title>
<polygon fill="none" stroke="black" points="648,-176.5 648,-245.5 733,-245.5 733,-176.5 648,-176.5"/>
<text text-anchor="middle" x="690.5" y="-230.3" font-family="Times,serif" font-size="14.00">x1*w1</text>
<polyline fill="none" stroke="black" points="648,-222.5 733,-222.5"/>
<text text-anchor="middle" x="690.5" y="-207.3" font-family="Times,serif" font-size="14.00">data &#45;6.0000</text>
<polyline fill="none" stroke="black" points="648,-199.5 733,-199.5"/>
<text text-anchor="middle" x="690.5" y="-184.3" font-family="Times,serif" font-size="14.00">grad 0.5000</text>
</g>
<!-- 139637244084304&#45;&gt;139637244084816+ -->
<g id="edge6" class="edge">
<title>139637244084304&#45;&gt;139637244084816+</title>
<path fill="none" stroke="black" d="M648,-193.36C637.79,-189.02 627.03,-184.44 617.39,-180.34"/>
<polygon fill="black" stroke="black" points="618.76,-177.12 608.19,-176.43 616.02,-183.56 618.76,-177.12"/>
</g>
<!-- 139637244084304*&#45;&gt;139637244084304 -->
<g id="edge3" class="edge">
<title>139637244084304*&#45;&gt;139637244084304</title>
<path fill="none" stroke="black" d="M768.88,-211C761.13,-211 752.36,-211 743.58,-211"/>
<polygon fill="black" stroke="black" points="743.32,-207.5 733.32,-211 743.32,-214.5 743.32,-207.5"/>
</g>
<!-- 139637244083792 -->
<g id="node8" class="node">
<title>139637244083792</title>
<polygon fill="none" stroke="black" points="859.5,-176.5 859.5,-245.5 944.5,-245.5 944.5,-176.5 859.5,-176.5"/>
<text text-anchor="middle" x="902" y="-230.3" font-family="Times,serif" font-size="14.00">w1</text>
<polyline fill="none" stroke="black" points="859.5,-222.5 944.5,-222.5"/>
<text text-anchor="middle" x="902" y="-207.3" font-family="Times,serif" font-size="14.00">data &#45;3.0000</text>
<polyline fill="none" stroke="black" points="859.5,-199.5 944.5,-199.5"/>
<text text-anchor="middle" x="902" y="-184.3" font-family="Times,serif" font-size="14.00">grad 1.0000</text>
</g>
<!-- 139637244083792&#45;&gt;139637244084304* -->
<g id="edge7" class="edge">
<title>139637244083792&#45;&gt;139637244084304*</title>
<path fill="none" stroke="black" d="M859.3,-211C850.72,-211 841.74,-211 833.37,-211"/>
<polygon fill="black" stroke="black" points="833.15,-207.5 823.15,-211 833.15,-214.5 833.15,-207.5"/>
</g>
<!-- 139637244083984 -->
<g id="node9" class="node">
<title>139637244083984</title>
<polygon fill="none" stroke="black" points="861,-88.5 861,-157.5 943,-157.5 943,-88.5 861,-88.5"/>
<text text-anchor="middle" x="902" y="-142.3" font-family="Times,serif" font-size="14.00">w2</text>
<polyline fill="none" stroke="black" points="861,-134.5 943,-134.5"/>
<text text-anchor="middle" x="902" y="-119.3" font-family="Times,serif" font-size="14.00">data 1.0000</text>
<polyline fill="none" stroke="black" points="861,-111.5 943,-111.5"/>
<text text-anchor="middle" x="902" y="-96.3" font-family="Times,serif" font-size="14.00">grad 0.0000</text>
</g>
<!-- 139637244084560* -->
<g id="node13" class="node">
<title>139637244084560*</title>
<ellipse fill="none" stroke="black" cx="796" cy="-123" rx="27" ry="18"/>
<text text-anchor="middle" x="796" y="-119.3" font-family="Times,serif" font-size="14.00">*</text>
</g>
<!-- 139637244083984&#45;&gt;139637244084560* -->
<g id="edge9" class="edge">
<title>139637244083984&#45;&gt;139637244084560*</title>
<path fill="none" stroke="black" d="M860.79,-123C851.75,-123 842.21,-123 833.34,-123"/>
<polygon fill="black" stroke="black" points="833.31,-119.5 823.31,-123 833.31,-126.5 833.31,-119.5"/>
</g>
<!-- 139637244085072 -->
<g id="node10" class="node">
<title>139637244085072</title>
<polygon fill="none" stroke="black" points="208,-88.5 208,-157.5 290,-157.5 290,-88.5 208,-88.5"/>
<text text-anchor="middle" x="249" y="-142.3" font-family="Times,serif" font-size="14.00">n</text>
<polyline fill="none" stroke="black" points="208,-134.5 290,-134.5"/>
<text text-anchor="middle" x="249" y="-119.3" font-family="Times,serif" font-size="14.00">data 0.8814</text>
<polyline fill="none" stroke="black" points="208,-111.5 290,-111.5"/>
<text text-anchor="middle" x="249" y="-96.3" font-family="Times,serif" font-size="14.00">grad 0.5000</text>
</g>
<!-- 139637244085072&#45;&gt;139637244085328tanh -->
<g id="edge13" class="edge">
<title>139637244085072&#45;&gt;139637244085328tanh</title>
<path fill="none" stroke="black" d="M207.98,-123C199.5,-123 190.6,-123 182.27,-123"/>
<polygon fill="black" stroke="black" points="182.11,-119.5 172.11,-123 182.11,-126.5 182.11,-119.5"/>
</g>
<!-- 139637244085072+&#45;&gt;139637244085072 -->
<g id="edge4" class="edge">
<title>139637244085072+&#45;&gt;139637244085072</title>
<path fill="none" stroke="black" d="M326,-123C318.19,-123 309.35,-123 300.52,-123"/>
<polygon fill="black" stroke="black" points="300.24,-119.5 290.24,-123 300.24,-126.5 300.24,-119.5"/>
</g>
<!-- 139637244084560 -->
<g id="node12" class="node">
<title>139637244084560</title>
<polygon fill="none" stroke="black" points="649.5,-88.5 649.5,-157.5 731.5,-157.5 731.5,-88.5 649.5,-88.5"/>
<text text-anchor="middle" x="690.5" y="-142.3" font-family="Times,serif" font-size="14.00">x2*w2</text>
<polyline fill="none" stroke="black" points="649.5,-134.5 731.5,-134.5"/>
<text text-anchor="middle" x="690.5" y="-119.3" font-family="Times,serif" font-size="14.00">data 0.0000</text>
<polyline fill="none" stroke="black" points="649.5,-111.5 731.5,-111.5"/>
<text text-anchor="middle" x="690.5" y="-96.3" font-family="Times,serif" font-size="14.00">grad 0.5000</text>
</g>
<!-- 139637244084560&#45;&gt;139637244084816+ -->
<g id="edge12" class="edge">
<title>139637244084560&#45;&gt;139637244084816+</title>
<path fill="none" stroke="black" d="M649.48,-140.01C638.88,-144.52 627.58,-149.32 617.5,-153.61"/>
<polygon fill="black" stroke="black" points="616.1,-150.4 608.27,-157.53 618.84,-156.84 616.1,-150.4"/>
</g>
<!-- 139637244084560*&#45;&gt;139637244084560 -->
<g id="edge5" class="edge">
<title>139637244084560*&#45;&gt;139637244084560</title>
<path fill="none" stroke="black" d="M768.88,-123C760.61,-123 751.18,-123 741.81,-123"/>
<polygon fill="black" stroke="black" points="741.72,-119.5 731.72,-123 741.72,-126.5 741.72,-119.5"/>
</g>
<!-- 139637244084112 -->
<g id="node14" class="node">
<title>139637244084112</title>
<polygon fill="none" stroke="black" points="428,-44.5 428,-113.5 510,-113.5 510,-44.5 428,-44.5"/>
<text text-anchor="middle" x="469" y="-98.3" font-family="Times,serif" font-size="14.00">b</text>
<polyline fill="none" stroke="black" points="428,-90.5 510,-90.5"/>
<text text-anchor="middle" x="469" y="-75.3" font-family="Times,serif" font-size="14.00">data 6.8814</text>
<polyline fill="none" stroke="black" points="428,-67.5 510,-67.5"/>
<text text-anchor="middle" x="469" y="-52.3" font-family="Times,serif" font-size="14.00">grad 0.5000</text>
</g>
<!-- 139637244084112&#45;&gt;139637244085072+ -->
<g id="edge14" class="edge">
<title>139637244084112&#45;&gt;139637244085072+</title>
<path fill="none" stroke="black" d="M427.81,-94.51C414.22,-99.76 399.23,-105.54 386.33,-110.52"/>
<polygon fill="black" stroke="black" points="385,-107.28 376.93,-114.15 387.52,-113.81 385,-107.28"/>
</g>
<!-- 139637244083664 -->
<g id="node15" class="node">
<title>139637244083664</title>
<polygon fill="none" stroke="black" points="861,-0.5 861,-69.5 943,-69.5 943,-0.5 861,-0.5"/>
<text text-anchor="middle" x="902" y="-54.3" font-family="Times,serif" font-size="14.00">x2</text>
<polyline fill="none" stroke="black" points="861,-46.5 943,-46.5"/>
<text text-anchor="middle" x="902" y="-31.3" font-family="Times,serif" font-size="14.00">data 0.0000</text>
<polyline fill="none" stroke="black" points="861,-23.5 943,-23.5"/>
<text text-anchor="middle" x="902" y="-8.3" font-family="Times,serif" font-size="14.00">grad 0.5000</text>
</g>
<!-- 139637244083664&#45;&gt;139637244084560* -->
<g id="edge8" class="edge">
<title>139637244083664&#45;&gt;139637244084560*</title>
<path fill="none" stroke="black" d="M860.79,-69.02C847.42,-80.34 832.94,-92.59 821.17,-102.55"/>
<polygon fill="black" stroke="black" points="818.87,-99.91 813.49,-109.04 823.39,-105.26 818.87,-99.91"/>
</g>
</g>
</svg>
