<?xml version="1.0" encoding="UTF-8" standalone="no"?>
<!DOCTYPE svg PUBLIC "-//W3C//DTD SVG 1.1//EN"
 "http://www.w3.org/Graphics/SVG/1.1/DTD/svg11.dtd">
<!-- Generated by graphviz version 6.0.1 (0)
 -->
<!-- Pages: 1 -->
<svg width="1821pt" height="386pt"
 viewBox="0.00 0.00 1821.00 386.00" xmlns="http://www.w3.org/2000/svg" xmlns:xlink="http://www.w3.org/1999/xlink">
<g id="graph0" class="graph" transform="scale(1 1) rotate(0) translate(4 382)">
<polygon fill="white" stroke="none" points="-4,4 -4,-382 1817,-382 1817,4 -4,4"/>
<!-- 139637244539408 -->
<g id="node1" class="node">
<title>139637244539408</title>
<polygon fill="none" stroke="black" points="1516,-88.5 1516,-157.5 1601,-157.5 1601,-88.5 1516,-88.5"/>
<text text-anchor="middle" x="1558.5" y="-142.3" font-family="Times,serif" font-size="14.00">x1*w1</text>
<polyline fill="none" stroke="black" points="1516,-134.5 1601,-134.5"/>
<text text-anchor="middle" x="1558.5" y="-119.3" font-family="Times,serif" font-size="14.00">data &#45;6.0000</text>
<polyline fill="none" stroke="black" points="1516,-111.5 1601,-111.5"/>
<text text-anchor="middle" x="1558.5" y="-96.3" font-family="Times,serif" font-size="14.00">grad 0.5000</text>
</g>
<!-- 139637245940432+ -->
<g id="node15" class="node">
<title>139637245940432+</title>
<ellipse fill="none" stroke="black" cx="1453" cy="-167" rx="27" ry="18"/>
<text text-anchor="middle" x="1453" y="-163.3" font-family="Times,serif" font-size="14.00">+</text>
</g>
<!-- 139637244539408&#45;&gt;139637245940432+ -->
<g id="edge16" class="edge">
<title>139637244539408&#45;&gt;139637245940432+</title>
<path fill="none" stroke="black" d="M1516,-140.64C1505.79,-144.98 1495.03,-149.56 1485.39,-153.66"/>
<polygon fill="black" stroke="black" points="1484.02,-150.44 1476.19,-157.57 1486.76,-156.88 1484.02,-150.44"/>
</g>
<!-- 139637244539408* -->
<g id="node2" class="node">
<title>139637244539408*</title>
<ellipse fill="none" stroke="black" cx="1664" cy="-123" rx="27" ry="18"/>
<text text-anchor="middle" x="1664" y="-119.3" font-family="Times,serif" font-size="14.00">*</text>
</g>
<!-- 139637244539408*&#45;&gt;139637244539408 -->
<g id="edge1" class="edge">
<title>139637244539408*&#45;&gt;139637244539408</title>
<path fill="none" stroke="black" d="M1636.88,-123C1629.13,-123 1620.36,-123 1611.58,-123"/>
<polygon fill="black" stroke="black" points="1611.32,-119.5 1601.32,-123 1611.32,-126.5 1611.32,-119.5"/>
</g>
<!-- 139637244530192 -->
<g id="node3" class="node">
<title>139637244530192</title>
<polygon fill="none" stroke="black" points="656.5,-132.5 656.5,-201.5 741.5,-201.5 741.5,-132.5 656.5,-132.5"/>
<text text-anchor="middle" x="699" y="-186.3" font-family="Times,serif" font-size="14.00"> </text>
<polyline fill="none" stroke="black" points="656.5,-178.5 741.5,-178.5"/>
<text text-anchor="middle" x="699" y="-163.3" font-family="Times,serif" font-size="14.00">data &#45;1.0000</text>
<polyline fill="none" stroke="black" points="656.5,-155.5 741.5,-155.5"/>
<text text-anchor="middle" x="699" y="-140.3" font-family="Times,serif" font-size="14.00">grad 0.1464</text>
</g>
<!-- 139637244530640+ -->
<g id="node19" class="node">
<title>139637244530640+</title>
<ellipse fill="none" stroke="black" cx="593" cy="-219" rx="27" ry="18"/>
<text text-anchor="middle" x="593" y="-215.3" font-family="Times,serif" font-size="14.00">+</text>
</g>
<!-- 139637244530192&#45;&gt;139637244530640+ -->
<g id="edge27" class="edge">
<title>139637244530192&#45;&gt;139637244530640+</title>
<path fill="none" stroke="black" d="M656.3,-187.85C645.59,-193.2 634.28,-198.86 624.27,-203.86"/>
<polygon fill="black" stroke="black" points="622.52,-200.82 615.15,-208.43 625.66,-207.09 622.52,-200.82"/>
</g>
<!-- 139637244529232 -->
<g id="node4" class="node">
<title>139637244529232</title>
<polygon fill="none" stroke="black" points="0,-219.5 0,-288.5 82,-288.5 82,-219.5 0,-219.5"/>
<text text-anchor="middle" x="41" y="-273.3" font-family="Times,serif" font-size="14.00">o</text>
<polyline fill="none" stroke="black" points="0,-265.5 82,-265.5"/>
<text text-anchor="middle" x="41" y="-250.3" font-family="Times,serif" font-size="14.00">data 0.7071</text>
<polyline fill="none" stroke="black" points="0,-242.5 82,-242.5"/>
<text text-anchor="middle" x="41" y="-227.3" font-family="Times,serif" font-size="14.00">grad 1.0000</text>
</g>
<!-- 139637244529232* -->
<g id="node5" class="node">
<title>139637244529232*</title>
<ellipse fill="none" stroke="black" cx="145" cy="-254" rx="27" ry="18"/>
<text text-anchor="middle" x="145" y="-250.3" font-family="Times,serif" font-size="14.00">*</text>
</g>
<!-- 139637244529232*&#45;&gt;139637244529232 -->
<g id="edge2" class="edge">
<title>139637244529232*&#45;&gt;139637244529232</title>
<path fill="none" stroke="black" d="M118,-254C110.19,-254 101.35,-254 92.52,-254"/>
<polygon fill="black" stroke="black" points="92.24,-250.5 82.24,-254 92.24,-257.5 92.24,-250.5"/>
</g>
<!-- 139637244528720 -->
<g id="node6" class="node">
<title>139637244528720</title>
<polygon fill="none" stroke="black" points="1076,-176.5 1076,-245.5 1158,-245.5 1158,-176.5 1076,-176.5"/>
<text text-anchor="middle" x="1117" y="-230.3" font-family="Times,serif" font-size="14.00">n</text>
<polyline fill="none" stroke="black" points="1076,-222.5 1158,-222.5"/>
<text text-anchor="middle" x="1117" y="-207.3" font-family="Times,serif" font-size="14.00">data 0.8814</text>
<polyline fill="none" stroke="black" points="1076,-199.5 1158,-199.5"/>
<text text-anchor="middle" x="1117" y="-184.3" font-family="Times,serif" font-size="14.00">grad 0.5000</text>
</g>
<!-- 139637244529424* -->
<g id="node23" class="node">
<title>139637244529424*</title>
<ellipse fill="none" stroke="black" cx="1013" cy="-255" rx="27" ry="18"/>
<text text-anchor="middle" x="1013" y="-251.3" font-family="Times,serif" font-size="14.00">*</text>
</g>
<!-- 139637244528720&#45;&gt;139637244529424* -->
<g id="edge15" class="edge">
<title>139637244528720&#45;&gt;139637244529424*</title>
<path fill="none" stroke="black" d="M1075.98,-228.26C1065.77,-232.67 1054.94,-237.34 1045.23,-241.53"/>
<polygon fill="black" stroke="black" points="1043.77,-238.35 1035.97,-245.52 1046.54,-244.77 1043.77,-238.35"/>
</g>
<!-- 139637244528720+ -->
<g id="node7" class="node">
<title>139637244528720+</title>
<ellipse fill="none" stroke="black" cx="1221" cy="-211" rx="27" ry="18"/>
<text text-anchor="middle" x="1221" y="-207.3" font-family="Times,serif" font-size="14.00">+</text>
</g>
<!-- 139637244528720+&#45;&gt;139637244528720 -->
<g id="edge3" class="edge">
<title>139637244528720+&#45;&gt;139637244528720</title>
<path fill="none" stroke="black" d="M1194,-211C1186.19,-211 1177.35,-211 1168.52,-211"/>
<polygon fill="black" stroke="black" points="1168.24,-207.5 1158.24,-211 1168.24,-214.5 1168.24,-207.5"/>
</g>
<!-- 139637244428368 -->
<g id="node8" class="node">
<title>139637244428368</title>
<polygon fill="none" stroke="black" points="1517.5,-176.5 1517.5,-245.5 1599.5,-245.5 1599.5,-176.5 1517.5,-176.5"/>
<text text-anchor="middle" x="1558.5" y="-230.3" font-family="Times,serif" font-size="14.00">x2*w2</text>
<polyline fill="none" stroke="black" points="1517.5,-222.5 1599.5,-222.5"/>
<text text-anchor="middle" x="1558.5" y="-207.3" font-family="Times,serif" font-size="14.00">data 0.0000</text>
<polyline fill="none" stroke="black" points="1517.5,-199.5 1599.5,-199.5"/>
<text text-anchor="middle" x="1558.5" y="-184.3" font-family="Times,serif" font-size="14.00">grad 0.5000</text>
</g>
<!-- 139637244428368&#45;&gt;139637245940432+ -->
<g id="edge19" class="edge">
<title>139637244428368&#45;&gt;139637245940432+</title>
<path fill="none" stroke="black" d="M1517.48,-193.99C1506.88,-189.48 1495.58,-184.68 1485.5,-180.39"/>
<polygon fill="black" stroke="black" points="1486.84,-177.16 1476.27,-176.47 1484.1,-183.6 1486.84,-177.16"/>
</g>
<!-- 139637244428368* -->
<g id="node9" class="node">
<title>139637244428368*</title>
<ellipse fill="none" stroke="black" cx="1664" cy="-211" rx="27" ry="18"/>
<text text-anchor="middle" x="1664" y="-207.3" font-family="Times,serif" font-size="14.00">*</text>
</g>
<!-- 139637244428368*&#45;&gt;139637244428368 -->
<g id="edge4" class="edge">
<title>139637244428368*&#45;&gt;139637244428368</title>
<path fill="none" stroke="black" d="M1636.88,-211C1628.61,-211 1619.18,-211 1609.81,-211"/>
<polygon fill="black" stroke="black" points="1609.72,-207.5 1599.72,-211 1609.72,-214.5 1609.72,-207.5"/>
</g>
<!-- 139637244527760 -->
<g id="node10" class="node">
<title>139637244527760</title>
<polygon fill="none" stroke="black" points="658,-220.5 658,-289.5 740,-289.5 740,-220.5 658,-220.5"/>
<text text-anchor="middle" x="699" y="-274.3" font-family="Times,serif" font-size="14.00"> </text>
<polyline fill="none" stroke="black" points="658,-266.5 740,-266.5"/>
<text text-anchor="middle" x="699" y="-251.3" font-family="Times,serif" font-size="14.00">data 5.8284</text>
<polyline fill="none" stroke="black" points="658,-243.5 740,-243.5"/>
<text text-anchor="middle" x="699" y="-228.3" font-family="Times,serif" font-size="14.00">grad 0.0429</text>
</g>
<!-- 139637244527760&#45;&gt;139637244530640+ -->
<g id="edge22" class="edge">
<title>139637244527760&#45;&gt;139637244530640+</title>
<path fill="none" stroke="black" d="M657.79,-241.08C647.61,-237.56 636.79,-233.81 627.01,-230.43"/>
<polygon fill="black" stroke="black" points="627.86,-227.02 617.27,-227.05 625.57,-233.63 627.86,-227.02"/>
</g>
<!-- 139637244530448+ -->
<g id="node21" class="node">
<title>139637244530448+</title>
<ellipse fill="none" stroke="black" cx="593" cy="-290" rx="27" ry="18"/>
<text text-anchor="middle" x="593" y="-286.3" font-family="Times,serif" font-size="14.00">+</text>
</g>
<!-- 139637244527760&#45;&gt;139637244530448+ -->
<g id="edge23" class="edge">
<title>139637244527760&#45;&gt;139637244530448+</title>
<path fill="none" stroke="black" d="M657.79,-268.53C647.69,-271.93 636.97,-275.54 627.26,-278.81"/>
<polygon fill="black" stroke="black" points="625.93,-275.56 617.57,-282.07 628.16,-282.2 625.93,-275.56"/>
</g>
<!-- 139637244527760exp -->
<g id="node11" class="node">
<title>139637244527760exp</title>
<ellipse fill="none" stroke="black" cx="805" cy="-255" rx="27" ry="18"/>
<text text-anchor="middle" x="805" y="-251.3" font-family="Times,serif" font-size="14.00">exp</text>
</g>
<!-- 139637244527760exp&#45;&gt;139637244527760 -->
<g id="edge5" class="edge">
<title>139637244527760exp&#45;&gt;139637244527760</title>
<path fill="none" stroke="black" d="M777.76,-255C769.36,-255 759.77,-255 750.25,-255"/>
<polygon fill="black" stroke="black" points="750.01,-251.5 740.01,-255 750.01,-258.5 750.01,-251.5"/>
</g>
<!-- 139637244529296 -->
<g id="node12" class="node">
<title>139637244529296</title>
<polygon fill="none" stroke="black" points="1076,-264.5 1076,-333.5 1158,-333.5 1158,-264.5 1076,-264.5"/>
<text text-anchor="middle" x="1117" y="-318.3" font-family="Times,serif" font-size="14.00"> </text>
<polyline fill="none" stroke="black" points="1076,-310.5 1158,-310.5"/>
<text text-anchor="middle" x="1117" y="-295.3" font-family="Times,serif" font-size="14.00">data 2.0000</text>
<polyline fill="none" stroke="black" points="1076,-287.5 1158,-287.5"/>
<text text-anchor="middle" x="1117" y="-272.3" font-family="Times,serif" font-size="14.00">grad 0.2203</text>
</g>
<!-- 139637244529296&#45;&gt;139637244529424* -->
<g id="edge24" class="edge">
<title>139637244529296&#45;&gt;139637244529424*</title>
<path fill="none" stroke="black" d="M1075.98,-281.74C1065.77,-277.33 1054.94,-272.66 1045.23,-268.47"/>
<polygon fill="black" stroke="black" points="1046.54,-265.23 1035.97,-264.48 1043.77,-271.65 1046.54,-265.23"/>
</g>
<!-- 139637244540368 -->
<g id="node13" class="node">
<title>139637244540368</title>
<polygon fill="none" stroke="black" points="1729,-264.5 1729,-333.5 1811,-333.5 1811,-264.5 1729,-264.5"/>
<text text-anchor="middle" x="1770" y="-318.3" font-family="Times,serif" font-size="14.00">x2</text>
<polyline fill="none" stroke="black" points="1729,-310.5 1811,-310.5"/>
<text text-anchor="middle" x="1770" y="-295.3" font-family="Times,serif" font-size="14.00">data 0.0000</text>
<polyline fill="none" stroke="black" points="1729,-287.5 1811,-287.5"/>
<text text-anchor="middle" x="1770" y="-272.3" font-family="Times,serif" font-size="14.00">grad 0.5000</text>
</g>
<!-- 139637244540368&#45;&gt;139637244428368* -->
<g id="edge17" class="edge">
<title>139637244540368&#45;&gt;139637244428368*</title>
<path fill="none" stroke="black" d="M1728.79,-264.98C1715.42,-253.66 1700.94,-241.41 1689.17,-231.45"/>
<polygon fill="black" stroke="black" points="1691.39,-228.74 1681.49,-224.96 1686.87,-234.09 1691.39,-228.74"/>
</g>
<!-- 139637245940432 -->
<g id="node14" class="node">
<title>139637245940432</title>
<polygon fill="none" stroke="black" points="1284,-132.5 1284,-201.5 1390,-201.5 1390,-132.5 1284,-132.5"/>
<text text-anchor="middle" x="1337" y="-186.3" font-family="Times,serif" font-size="14.00">x1*w1 + x2*w2</text>
<polyline fill="none" stroke="black" points="1284,-178.5 1390,-178.5"/>
<text text-anchor="middle" x="1337" y="-163.3" font-family="Times,serif" font-size="14.00">data &#45;6.0000</text>
<polyline fill="none" stroke="black" points="1284,-155.5 1390,-155.5"/>
<text text-anchor="middle" x="1337" y="-140.3" font-family="Times,serif" font-size="14.00">grad 0.5000</text>
</g>
<!-- 139637245940432&#45;&gt;139637244528720+ -->
<g id="edge18" class="edge">
<title>139637245940432&#45;&gt;139637244528720+</title>
<path fill="none" stroke="black" d="M1283.67,-187.2C1273.61,-191.08 1263.36,-195.04 1254.17,-198.58"/>
<polygon fill="black" stroke="black" points="1252.76,-195.38 1244.69,-202.24 1255.28,-201.91 1252.76,-195.38"/>
</g>
<!-- 139637245940432+&#45;&gt;139637245940432 -->
<g id="edge6" class="edge">
<title>139637245940432+&#45;&gt;139637245940432</title>
<path fill="none" stroke="black" d="M1425.85,-167C1418.11,-167 1409.29,-167 1400.29,-167"/>
<polygon fill="black" stroke="black" points="1400.1,-163.5 1390.1,-167 1400.1,-170.5 1400.1,-163.5"/>
</g>
<!-- 139637244539600 -->
<g id="node16" class="node">
<title>139637244539600</title>
<polygon fill="none" stroke="black" points="1727,-88.5 1727,-157.5 1813,-157.5 1813,-88.5 1727,-88.5"/>
<text text-anchor="middle" x="1770" y="-142.3" font-family="Times,serif" font-size="14.00">x1</text>
<polyline fill="none" stroke="black" points="1727,-134.5 1813,-134.5"/>
<text text-anchor="middle" x="1770" y="-119.3" font-family="Times,serif" font-size="14.00">data 2.0000</text>
<polyline fill="none" stroke="black" points="1727,-111.5 1813,-111.5"/>
<text text-anchor="middle" x="1770" y="-96.3" font-family="Times,serif" font-size="14.00">grad &#45;1.5000</text>
</g>
<!-- 139637244539600&#45;&gt;139637244539408* -->
<g id="edge12" class="edge">
<title>139637244539600&#45;&gt;139637244539408*</title>
<path fill="none" stroke="black" d="M1727,-123C1718.52,-123 1709.66,-123 1701.39,-123"/>
<polygon fill="black" stroke="black" points="1701.3,-119.5 1691.3,-123 1701.3,-126.5 1701.3,-119.5"/>
</g>
<!-- 139637244541392 -->
<g id="node17" class="node">
<title>139637244541392</title>
<polygon fill="none" stroke="black" points="1296,-220.5 1296,-289.5 1378,-289.5 1378,-220.5 1296,-220.5"/>
<text text-anchor="middle" x="1337" y="-274.3" font-family="Times,serif" font-size="14.00">b</text>
<polyline fill="none" stroke="black" points="1296,-266.5 1378,-266.5"/>
<text text-anchor="middle" x="1337" y="-251.3" font-family="Times,serif" font-size="14.00">data 6.8814</text>
<polyline fill="none" stroke="black" points="1296,-243.5 1378,-243.5"/>
<text text-anchor="middle" x="1337" y="-228.3" font-family="Times,serif" font-size="14.00">grad 0.5000</text>
</g>
<!-- 139637244541392&#45;&gt;139637244528720+ -->
<g id="edge13" class="edge">
<title>139637244541392&#45;&gt;139637244528720+</title>
<path fill="none" stroke="black" d="M1295.81,-239.49C1282.22,-234.24 1267.23,-228.46 1254.33,-223.48"/>
<polygon fill="black" stroke="black" points="1255.52,-220.19 1244.93,-219.85 1253,-226.72 1255.52,-220.19"/>
</g>
<!-- 139637244530640 -->
<g id="node18" class="node">
<title>139637244530640</title>
<polygon fill="none" stroke="black" points="326,-184.5 326,-253.5 408,-253.5 408,-184.5 326,-184.5"/>
<text text-anchor="middle" x="367" y="-238.3" font-family="Times,serif" font-size="14.00"> </text>
<polyline fill="none" stroke="black" points="326,-230.5 408,-230.5"/>
<text text-anchor="middle" x="367" y="-215.3" font-family="Times,serif" font-size="14.00">data 4.8284</text>
<polyline fill="none" stroke="black" points="326,-207.5 408,-207.5"/>
<text text-anchor="middle" x="367" y="-192.3" font-family="Times,serif" font-size="14.00">grad 0.1464</text>
</g>
<!-- 139637244530640&#45;&gt;139637244529232* -->
<g id="edge21" class="edge">
<title>139637244530640&#45;&gt;139637244529232*</title>
<path fill="none" stroke="black" d="M325.73,-225.34C293.8,-230.37 248.04,-237.6 208,-244 199.33,-245.38 189.99,-246.89 181.24,-248.3"/>
<polygon fill="black" stroke="black" points="180.65,-244.85 171.34,-249.9 181.77,-251.76 180.65,-244.85"/>
</g>
<!-- 139637244530640+&#45;&gt;139637244530640 -->
<g id="edge7" class="edge">
<title>139637244530640+&#45;&gt;139637244530640</title>
<path fill="none" stroke="black" d="M565.87,-219C529.82,-219 464.1,-219 418.34,-219"/>
<polygon fill="black" stroke="black" points="418.32,-215.5 408.32,-219 418.32,-222.5 418.32,-215.5"/>
</g>
<!-- 139637244530448 -->
<g id="node20" class="node">
<title>139637244530448</title>
<polygon fill="none" stroke="black" points="444,-255.5 444,-324.5 530,-324.5 530,-255.5 444,-255.5"/>
<text text-anchor="middle" x="487" y="-309.3" font-family="Times,serif" font-size="14.00"> </text>
<polyline fill="none" stroke="black" points="444,-301.5 530,-301.5"/>
<text text-anchor="middle" x="487" y="-286.3" font-family="Times,serif" font-size="14.00">data 6.8284</text>
<polyline fill="none" stroke="black" points="444,-278.5 530,-278.5"/>
<text text-anchor="middle" x="487" y="-263.3" font-family="Times,serif" font-size="14.00">grad &#45;0.1036</text>
</g>
<!-- 139637244526928**&#45;1 -->
<g id="node26" class="node">
<title>139637244526928**&#45;1</title>
<ellipse fill="none" stroke="black" cx="367" cy="-290" rx="27" ry="18"/>
<text text-anchor="middle" x="367" y="-286.3" font-family="Times,serif" font-size="14.00">**&#45;1</text>
</g>
<!-- 139637244530448&#45;&gt;139637244526928**&#45;1 -->
<g id="edge20" class="edge">
<title>139637244530448&#45;&gt;139637244526928**&#45;1</title>
<path fill="none" stroke="black" d="M443.73,-290C430.82,-290 416.73,-290 404.25,-290"/>
<polygon fill="black" stroke="black" points="404.21,-286.5 394.21,-290 404.21,-293.5 404.21,-286.5"/>
</g>
<!-- 139637244530448+&#45;&gt;139637244530448 -->
<g id="edge8" class="edge">
<title>139637244530448+&#45;&gt;139637244530448</title>
<path fill="none" stroke="black" d="M565.76,-290C557.89,-290 548.96,-290 540.04,-290"/>
<polygon fill="black" stroke="black" points="540.02,-286.5 530.02,-290 540.02,-293.5 540.02,-286.5"/>
</g>
<!-- 139637244529424 -->
<g id="node22" class="node">
<title>139637244529424</title>
<polygon fill="none" stroke="black" points="868,-220.5 868,-289.5 950,-289.5 950,-220.5 868,-220.5"/>
<text text-anchor="middle" x="909" y="-274.3" font-family="Times,serif" font-size="14.00"> </text>
<polyline fill="none" stroke="black" points="868,-266.5 950,-266.5"/>
<text text-anchor="middle" x="909" y="-251.3" font-family="Times,serif" font-size="14.00">data 1.7627</text>
<polyline fill="none" stroke="black" points="868,-243.5 950,-243.5"/>
<text text-anchor="middle" x="909" y="-228.3" font-family="Times,serif" font-size="14.00">grad 0.2500</text>
</g>
<!-- 139637244529424&#45;&gt;139637244527760exp -->
<g id="edge14" class="edge">
<title>139637244529424&#45;&gt;139637244527760exp</title>
<path fill="none" stroke="black" d="M867.98,-255C859.5,-255 850.6,-255 842.27,-255"/>
<polygon fill="black" stroke="black" points="842.11,-251.5 832.11,-255 842.11,-258.5 842.11,-251.5"/>
</g>
<!-- 139637244529424*&#45;&gt;139637244529424 -->
<g id="edge9" class="edge">
<title>139637244529424*&#45;&gt;139637244529424</title>
<path fill="none" stroke="black" d="M986,-255C978.19,-255 969.35,-255 960.52,-255"/>
<polygon fill="black" stroke="black" points="960.24,-251.5 950.24,-255 960.24,-258.5 960.24,-251.5"/>
</g>
<!-- 139637244529936 -->
<g id="node24" class="node">
<title>139637244529936</title>
<polygon fill="none" stroke="black" points="656,-308.5 656,-377.5 742,-377.5 742,-308.5 656,-308.5"/>
<text text-anchor="middle" x="699" y="-362.3" font-family="Times,serif" font-size="14.00"> </text>
<polyline fill="none" stroke="black" points="656,-354.5 742,-354.5"/>
<text text-anchor="middle" x="699" y="-339.3" font-family="Times,serif" font-size="14.00">data 1.0000</text>
<polyline fill="none" stroke="black" points="656,-331.5 742,-331.5"/>
<text text-anchor="middle" x="699" y="-316.3" font-family="Times,serif" font-size="14.00">grad &#45;0.1036</text>
</g>
<!-- 139637244529936&#45;&gt;139637244530448+ -->
<g id="edge11" class="edge">
<title>139637244529936&#45;&gt;139637244530448+</title>
<path fill="none" stroke="black" d="M656,-321.6C645.32,-316.15 634.05,-310.41 624.1,-305.34"/>
<polygon fill="black" stroke="black" points="625.52,-302.13 615.02,-300.71 622.34,-308.37 625.52,-302.13"/>
</g>
<!-- 139637244526928 -->
<g id="node25" class="node">
<title>139637244526928</title>
<polygon fill="none" stroke="black" points="208,-253.5 208,-322.5 290,-322.5 290,-253.5 208,-253.5"/>
<text text-anchor="middle" x="249" y="-307.3" font-family="Times,serif" font-size="14.00"> </text>
<polyline fill="none" stroke="black" points="208,-299.5 290,-299.5"/>
<text text-anchor="middle" x="249" y="-284.3" font-family="Times,serif" font-size="14.00">data 0.1464</text>
<polyline fill="none" stroke="black" points="208,-276.5 290,-276.5"/>
<text text-anchor="middle" x="249" y="-261.3" font-family="Times,serif" font-size="14.00">grad 4.8284</text>
</g>
<!-- 139637244526928&#45;&gt;139637244529232* -->
<g id="edge25" class="edge">
<title>139637244526928&#45;&gt;139637244529232*</title>
<path fill="none" stroke="black" d="M207.98,-274.66C198.39,-271.46 188.25,-268.08 179.02,-265.01"/>
<polygon fill="black" stroke="black" points="180.02,-261.65 169.42,-261.81 177.8,-268.29 180.02,-261.65"/>
</g>
<!-- 139637244526928**&#45;1&#45;&gt;139637244526928 -->
<g id="edge10" class="edge">
<title>139637244526928**&#45;1&#45;&gt;139637244526928</title>
<path fill="none" stroke="black" d="M339.97,-289.55C328.26,-289.35 314.02,-289.1 300.35,-288.87"/>
<polygon fill="black" stroke="black" points="300.13,-285.36 290.07,-288.69 300.01,-292.36 300.13,-285.36"/>
</g>
<!-- 139637244539792 -->
<g id="node27" class="node">
<title>139637244539792</title>
<polygon fill="none" stroke="black" points="1727.5,-0.5 1727.5,-69.5 1812.5,-69.5 1812.5,-0.5 1727.5,-0.5"/>
<text text-anchor="middle" x="1770" y="-54.3" font-family="Times,serif" font-size="14.00">w1</text>
<polyline fill="none" stroke="black" points="1727.5,-46.5 1812.5,-46.5"/>
<text text-anchor="middle" x="1770" y="-31.3" font-family="Times,serif" font-size="14.00">data &#45;3.0000</text>
<polyline fill="none" stroke="black" points="1727.5,-23.5 1812.5,-23.5"/>
<text text-anchor="middle" x="1770" y="-8.3" font-family="Times,serif" font-size="14.00">grad 1.0000</text>
</g>
<!-- 139637244539792&#45;&gt;139637244539408* -->
<g id="edge26" class="edge">
<title>139637244539792&#45;&gt;139637244539408*</title>
<path fill="none" stroke="black" d="M1728.19,-69.53C1715.1,-80.61 1701.01,-92.53 1689.46,-102.3"/>
<polygon fill="black" stroke="black" points="1686.93,-99.86 1681.56,-108.99 1691.45,-105.2 1686.93,-99.86"/>
</g>
<!-- 139637244542928 -->
<g id="node28" class="node">
<title>139637244542928</title>
<polygon fill="none" stroke="black" points="1729,-176.5 1729,-245.5 1811,-245.5 1811,-176.5 1729,-176.5"/>
<text text-anchor="middle" x="1770" y="-230.3" font-family="Times,serif" font-size="14.00">w2</text>
<polyline fill="none" stroke="black" points="1729,-222.5 1811,-222.5"/>
<text text-anchor="middle" x="1770" y="-207.3" font-family="Times,serif" font-size="14.00">data 1.0000</text>
<polyline fill="none" stroke="black" points="1729,-199.5 1811,-199.5"/>
<text text-anchor="middle" x="1770" y="-184.3" font-family="Times,serif" font-size="14.00">grad 0.0000</text>
</g>
<!-- 139637244542928&#45;&gt;139637244428368* -->
<g id="edge28" class="edge">
<title>139637244542928&#45;&gt;139637244428368*</title>
<path fill="none" stroke="black" d="M1728.79,-211C1719.75,-211 1710.21,-211 1701.34,-211"/>
<polygon fill="black" stroke="black" points="1701.31,-207.5 1691.31,-211 1701.31,-214.5 1701.31,-207.5"/>
</g>
</g>
</svg>
